<?xml version="1.0" encoding="iso-8859-1"?>
<!-- Uploaded to: SVG Repo, www.svgrepo.com, Generator: SVG Repo Mixer Tools -->
<svg fill="#000000" version="1.1" id="Layer_1" xmlns="http://www.w3.org/2000/svg" xmlns:xlink="http://www.w3.org/1999/xlink" 
	 viewBox="0 0 512.004 512.004" xml:space="preserve">
<g>
	<g>
		<g>
			<polygon points="364.957,107.108 364.957,141.969 380.014,141.969 380.014,203.974 268.09,203.974 268.09,238.835 
				283.148,238.835 283.148,300.841 171.223,300.841 171.223,335.703 186.282,335.703 186.282,397.708 74.356,397.708 
				74.356,432.569 89.415,432.569 89.415,512.004 124.276,512.004 124.276,432.569 221.143,432.569 221.143,335.703 
				318.009,335.703 318.009,238.835 414.876,238.835 414.876,141.969 494.312,141.969 494.312,107.108 			"/>
			
				<rect x="-36.523" y="155.536" transform="matrix(0.7071 -0.7071 0.7071 0.7071 -66.4634 185.4769)" width="454.363" height="34.861"/>
		</g>
	</g>
</g>
</svg>