<?xml version="1.0" encoding="iso-8859-1"?>
<!-- Uploaded to: SVG Repo, www.svgrepo.com, Generator: SVG Repo Mixer Tools -->
<!DOCTYPE svg PUBLIC "-//W3C//DTD SVG 1.1//EN" "http://www.w3.org/Graphics/SVG/1.1/DTD/svg11.dtd">
<svg fill="#000000" height="800px" width="800px" version="1.1" id="Capa_1" xmlns="http://www.w3.org/2000/svg" xmlns:xlink="http://www.w3.org/1999/xlink" 
	 viewBox="0 0 202.77 202.77" xml:space="preserve">
<path d="M202.732,60.803c-0.007-0.063-0.021-0.124-0.028-0.187c-0.023-0.184-0.047-0.367-0.084-0.548
	c-0.019-0.094-0.047-0.183-0.068-0.275c-0.036-0.148-0.069-0.297-0.114-0.442c-0.025-0.082-0.058-0.16-0.086-0.241
	c-0.053-0.153-0.105-0.306-0.167-0.456c-0.018-0.044-0.041-0.085-0.061-0.129c-0.371-0.838-0.89-1.612-1.55-2.273L148.536,4.213
	c-1.407-1.407-3.314-2.197-5.304-2.197H36.85c-4.143,0-7.5,3.358-7.5,7.5V130.38H7.5c-4.142,0-7.5,3.358-7.5,7.5v29.349
	c0,18.485,13.78,33.523,30.719,33.523h141.334c16.938,0,30.717-15.039,30.717-33.523V61.556
	C202.77,61.303,202.756,61.052,202.732,60.803z M150.732,27.624l26.439,26.44h-26.439V27.624z M15,167.229V145.38h126.336v21.849
	c0,6.844,1.893,13.213,5.131,18.523H30.719C22.052,185.753,15,177.443,15,167.229z M172.053,185.753
	c-8.666,0-15.717-8.31-15.717-18.523V137.88c0-4.142-3.357-7.5-7.5-7.5H44.35V17.017h91.383v44.547c0,4.142,3.357,7.5,7.5,7.5
	h44.537v98.166C187.77,177.443,180.719,185.753,172.053,185.753z"/>
</svg>